<svg id="Layer_1" width="150" height="26" data-name="Layer 1" xmlns="http://www.w3.org/2000/svg" viewBox="0 0 335.4481 57.5743"><defs><style>.cls-1{fill:#1d1d1b;}.cls-2{fill:#c00d0d;}</style></defs><title>genvex-logo</title><path class="cls-1" d="M140.38,35.6834C140.7641,43.97,148.4344,51.02,156.642,51.02c7.67-.1565,13.1167-4.7255,15.034-9.9914h5.6758a21.8157,21.8157,0,0,1-42.4941-7.2812A22.2947,22.2947,0,0,1,156.642,11.44,21.7687,21.7687,0,0,1,175.3584,22.284,22.4792,22.4792,0,0,1,178.58,35.6834H152.1139l0-4.88h21.02c-1.6868-9.9914-9.741-14.4833-16.4141-14.4833A16.5927,16.5927,0,0,0,140.38,30.8035,24.7156,24.7156,0,0,0,140.38,35.6834Z"/><path class="cls-1" d="M258.1828,35.6834c.3839,8.2868,8.0543,15.3365,16.2619,15.3365,7.67-.1565,13.1167-4.7255,15.034-9.9914h5.6758A21.8157,21.8157,0,0,1,252.66,33.7473,22.2947,22.2947,0,0,1,274.4447,11.44,21.7684,21.7684,0,0,1,293.161,22.284a22.48,22.48,0,0,1,3.2213,13.3994H269.9166l0-4.88h21.02c-1.6868-9.9914-9.7411-14.4833-16.4141-14.4833a16.5928,16.5928,0,0,0-16.3391,14.4833A24.7238,24.7238,0,0,0,258.1828,35.6834Z"/><path class="cls-1" d="M215.303,12.5242h5.7531L235.86,48.1533l15.0341-35.6291h5.753L238.9275,54.8921h-5.9064Z"/><path class="cls-1" d="M132.0752,30.8116C130.8213,47.2,116.6592,57.108,103.2344,57.108c-16.3008,0-29.2832-13.3344-29.2832-28.5312A28.93,28.93,0,0,1,103.1606.0455c14.4575,0,23.6773,10.0567,25.8164,15.6441h-6.3432c-3.0982-5.438-10.3267-10.6529-19.3994-10.6529A23.79,23.79,0,0,0,79.41,28.651,23.7169,23.7169,0,0,0,103.456,52.1168c11.58,0,20.1368-8.6416,22.0542-16.3144H95.0469V30.8116Z"/><path class="cls-2" d="M52.2881,2.3224C49.95.5859,47.0933,0,40.9666,0H17.0518C10.8141,0,7.9565.5866,5.729,2.3234,2.3746,4.8641,0,8.25,0,28.787S2.3746,52.71,5.7274,55.25c2.2294,1.738,5.087,2.3246,11.3244,2.3246H40.9666c6.1267,0,8.9833-.586,11.3245-2.3246,3.2923-2.5668,5.6228-5.9676,5.6228-26.4627S55.5834,4.8917,52.2881,2.3224ZM49.1943,51.7377c-2.03,1.5079-4.508,2.0161-9.8215,2.0161H33.6612l6.3959-6.396a2.8429,2.8429,0,0,0,0-4.0087l-9.0815-9.0816a2.8428,2.8428,0,0,0-4.0088,0L17.8852,43.349a2.843,2.843,0,0,0,0,4.0088l6.396,6.396H18.6318c-5.41,0-7.888-.5088-9.8216-2.0161C6.1857,49.75,4.2531,47.16,3.9012,33.5793l6.2569,6.2569a2.843,2.843,0,0,0,4.0088,0l9.0815-9.0816a2.843,2.843,0,0,0,0-4.0088l-9.0815-9.0816a2.8431,2.8431,0,0,0-4.0089,0L3.9034,23.9188C4.2607,10.4058,6.1909,7.8206,8.8117,5.8355c1.9318-1.5063,4.41-2.0151,9.82-2.0151h5.6255l-6.3514,6.3515a2.843,2.843,0,0,0,0,4.0088l9.0816,9.0815a2.843,2.843,0,0,0,4.0088,0l9.0816-9.0815a2.843,2.843,0,0,0,0-4.0088L33.7264,3.82h5.6464c5.3135,0,7.7913.5083,9.8189,2.0143,2.5768,2.0091,4.4728,4.6093,4.821,18.1292l-6.3-6.3a2.843,2.843,0,0,0-4.0088,0l-9.0815,9.0816a2.843,2.843,0,0,0,0,4.0088l9.0816,9.0816a2.843,2.843,0,0,0,4.0088,0l6.3018-6.3018C53.672,47.1223,51.7737,49.7267,49.1943,51.7377Z"/><polygon class="cls-1" points="335.448 12.524 329.005 12.524 312.937 30.285 296.87 12.524 290.426 12.524 309.715 33.846 290.677 54.892 297.12 54.892 312.937 37.408 328.754 54.892 335.198 54.892 316.159 33.846 335.448 12.524"/><path class="cls-1" d="M199.8459,16.8063A13.1883,13.1883,0,0,0,190.8333,20.4c-2.2722,2.2176-3.9388,6.042-3.9388,11.4723v23.02H181.593v-23.02c0-6.8836,2.0446-11.702,5.15-14.7612,3.7874-3.8234,8.028-5.1232,13.1028-5.1232h.0029c5.0748,0,9.3154,1.3,13.1028,5.1232,3.1055,3.0592,5.15,7.8776,5.15,14.7612v23.02H212.8v-23.02c0-5.43-1.6666-9.2547-3.9388-11.4723a13.1883,13.1883,0,0,0-9.0126-3.5937Z"/></svg>