<svg xmlns="http://www.w3.org/2000/svg" viewBox="0 0 58 58">
  <path fill="#fff" d="M52.2881,2.3224C49.95.5859,47.0933,0,40.9666,0H17.0518C10.8141,0,7.9565.5866,5.729,2.3234C2.3746,4.8641,0,8.25,0,28.787S2.3746,52.71,5.7274,55.25c2.2294,1.738,5.087,2.3246,11.3244,2.3246H40.9666c6.1267,0,8.9833-.586,11.3245-2.3246,3.2923-2.5668,5.6228-5.9676,5.6228-26.4627S55.5834,4.8917,52.2881,2.3224ZM49.1943,51.7377c-2.03,1.5079-4.508,2.0161-9.8215,2.0161H33.6612l6.3959-6.396a2.8429,2.8429,0,0,0,0-4.0087l-9.0815-9.0816a2.8428,2.8428,0,0,0-4.0088,0L17.8852,43.349a2.843,2.843,0,0,0,0,4.0088l6.396,6.396H18.6318c-5.41,0-7.888-.5088-9.8216-2.0161C6.1857,49.75,4.2531,47.16,3.9012,33.5793l6.2569,6.2569a2.843,2.843,0,0,0,4.0088,0l9.0815-9.0816a2.843,2.843,0,0,0,0-4.0088l-9.0815-9.0816a2.8431,2.8431,0,0,0-4.0089,0L3.9034,23.9188C4.2607,10.4058,6.1909,7.8206,8.8117,5.8355c1.9318-1.5063,4.41-2.0151,9.82-2.0151h5.6255l-6.3514,6.3515a2.843,2.843,0,0,0,0,4.0088l9.0816,9.0815a2.843,2.843,0,0,0,4.0088,0l9.0816-9.0815a2.843,2.843,0,0,0,0-4.0088L33.7264,3.82h5.6464c5.3135,0,7.7913.5083,9.8189,2.0143,2.5768,2.0091,4.4728,4.6093,4.821,18.1292l-6.3-6.3a2.843,2.843,0,0,0-4.0088,0l-9.0815,9.0816a2.843,2.843,0,0,0,0,4.0088l9.0816,9.0816a2.843,2.843,0,0,0,4.0088,0l6.3018-6.3018C53.672,47.1223,51.7737,49.7267,49.1943,51.7377Z"/>
</svg>
